<?xml version="1.0" standalone="no"?>
<!DOCTYPE svg PUBLIC "-//W3C//DTD SVG 20010904//EN"
 "http://www.w3.org/TR/2001/REC-SVG-20010904/DTD/svg10.dtd">
 
<svg version="1.0" xmlns="http://www.w3.org/2000/svg"
 width="900.000000pt" height="900.000000pt" viewBox="0 0 900.000000 900.000000"
 preserveAspectRatio="xMidYMid meet" >
 <rect width="100%" height="100%" fill="#FFFFFF" rx="300" ry="300" />
<metadata>
Created by potrace 1.16, written by Peter Selinger 2001-2019
</metadata>
<g transform="translate(0.000000,900.000000) scale(0.100000,-0.100000)"
fill="#000000" stroke="none">
<path d="M3210 8985 c-14 -8 -59 -27 -100 -43 -41 -16 -100 -39 -130 -52 -30
-12 -75 -30 -100 -39 -25 -9 -55 -22 -67 -29 -12 -7 -27 -12 -33 -12 -7 0 -28
-7 -48 -16 -63 -27 -75 -32 -162 -66 -47 -18 -86 -36 -88 -40 -2 -4 -11 -8
-20 -8 -19 0 -106 -32 -167 -61 -22 -10 -48 -19 -57 -19 -9 0 -19 -4 -23 -9
-3 -6 -38 -20 -78 -32 -39 -12 -79 -28 -87 -35 -8 -6 -31 -17 -50 -22 -57 -17
-107 -37 -121 -48 -8 -6 -36 -17 -64 -24 -27 -7 -64 -21 -81 -31 -17 -11 -40
-19 -51 -19 -10 0 -23 -4 -28 -9 -6 -5 -59 -28 -120 -50 -60 -23 -121 -47
-135 -55 -14 -7 -42 -19 -63 -26 -22 -7 -51 -18 -65 -26 -15 -8 -37 -14 -49
-14 -13 0 -23 -4 -23 -10 0 -5 -7 -10 -15 -10 -8 0 -43 -13 -77 -30 -35 -16
-99 -41 -143 -56 -44 -14 -97 -35 -117 -45 -21 -11 -46 -19 -58 -19 -11 0 -20
-4 -20 -8 0 -5 -53 -28 -117 -52 -65 -24 -127 -49 -138 -57 -11 -7 -28 -13
-37 -13 -10 0 -26 -4 -36 -9 -49 -27 -131 -60 -164 -66 -21 -4 -38 -11 -38
-16 0 -5 -8 -9 -18 -9 -10 0 -22 -4 -28 -9 -5 -4 -44 -21 -86 -36 -43 -15 -78
-32 -78 -36 0 -5 -7 -9 -15 -9 -13 0 -15 -113 -15 -960 l0 -960 47 19 c174 68
585 231 1048 414 132 52 350 138 485 192 351 138 681 269 1190 471 245 97 591
234 770 304 480 189 874 345 1240 490 380 151 886 351 1120 443 91 36 332 131
535 212 204 80 483 190 620 245 518 204 883 348 970 383 l90 36 -2440 0
c-2015 -1 -2444 -3 -2465 -14z"/>
<path d="M2930 6590 c0 -5 14 -16 30 -25 17 -9 30 -17 30 -19 0 -1 -28 3 -61
10 -104 21 -228 27 -349 15 -196 -20 -217 -26 -167 -48 19 -9 15 -11 -33 -17
-145 -19 -415 -120 -490 -184 l-25 -21 60 -1 c68 0 64 -9 -18 -39 -167 -61
-323 -177 -407 -304 -22 -33 -40 -64 -40 -69 0 -5 35 10 78 33 l77 43 -120
-120 c-76 -74 -131 -139 -149 -171 -15 -29 -22 -53 -16 -53 6 0 33 11 60 25
27 14 53 25 57 25 4 0 -31 -39 -78 -87 -48 -49 -102 -112 -122 -141 -39 -59
-113 -229 -104 -238 3 -3 33 11 68 31 34 19 63 34 65 33 1 -2 -18 -35 -42 -73
-48 -74 -97 -165 -108 -202 -7 -21 -4 -23 31 -23 37 0 39 2 67 60 16 33 68
127 117 208 48 81 86 148 84 150 -2 2 -38 -11 -82 -28 -43 -18 -84 -35 -92
-38 -20 -8 20 59 78 128 25 30 112 122 193 205 80 82 146 151 145 152 -1 0
-36 -10 -77 -23 -41 -14 -80 -23 -87 -22 -7 2 46 64 116 138 71 74 123 136
116 138 -7 2 -40 -8 -74 -22 -34 -13 -61 -21 -61 -16 0 4 21 27 48 50 58 52
244 143 411 201 l125 43 -70 17 c-38 10 -72 18 -76 18 -5 1 -8 5 -8 10 0 29
318 114 505 136 52 7 57 9 38 18 -13 5 -23 13 -23 17 0 9 88 20 166 20 112 0
351 -53 439 -97 l30 -15 -29 31 c-16 17 -27 34 -23 37 18 18 224 -102 387
-225 105 -80 103 -79 80 -21 -23 58 -25 74 -9 64 15 -9 82 -154 75 -161 -7 -8
-89 44 -206 132 -112 83 -187 125 -222 125 -21 0 -20 -2 10 -33 18 -18 32 -36
32 -40 0 -3 -48 18 -108 48 -206 105 -368 142 -497 115 l-60 -13 58 -13 c109
-26 95 -31 -94 -37 -199 -6 -318 -23 -399 -58 -57 -25 -53 -33 21 -42 47 -6
99 -25 99 -36 0 -4 -37 -17 -83 -29 -167 -46 -337 -133 -406 -206 -26 -28 -19
-32 26 -15 30 12 166 15 183 4 16 -10 2 -25 -23 -25 -48 0 -185 -42 -232 -71
-45 -27 -105 -93 -94 -103 2 -3 29 2 59 10 59 15 94 17 124 5 15 -6 1 -19 -75
-71 -122 -83 -220 -163 -290 -237 -53 -55 -96 -120 -86 -129 2 -2 31 10 63 26
60 31 156 49 190 36 14 -5 2 -21 -64 -84 -122 -115 -184 -237 -167 -328 l6
-36 67 65 c59 56 106 87 117 75 2 -2 -5 -39 -16 -83 -24 -103 -24 -125 0 -125
15 0 21 10 26 43 4 23 17 82 30 131 l24 88 -36 -7 c-51 -9 -106 -39 -153 -82
-34 -30 -40 -33 -40 -16 0 76 105 213 265 346 l29 25 -39 11 c-59 16 -125 13
-188 -8 -32 -11 -57 -18 -57 -15 0 3 12 21 26 39 26 35 54 57 309 246 l140
103 -50 8 c-27 5 -78 6 -112 3 -40 -3 -63 -2 -63 5 0 20 102 67 219 99 74 21
121 39 121 47 0 17 -95 38 -148 32 -23 -2 -42 0 -42 4 0 34 251 142 462 199
l43 11 -45 23 c-25 12 -64 29 -88 36 -23 7 -39 16 -35 20 21 21 203 42 413 48
l225 7 -65 31 -65 32 70 0 c135 1 306 -60 501 -180 36 -22 62 -34 58 -27 -4 7
-20 32 -36 56 -43 63 -16 54 114 -40 179 -129 273 -187 284 -176 1 2 -8 30
-22 63 -30 76 -30 84 1 55 27 -25 95 -152 95 -176 0 -19 -9 -18 -50 7 -63 39
-158 69 -213 68 l-52 0 40 -13 c109 -35 237 -131 276 -207 25 -51 24 -54 -10
-30 -51 36 -135 71 -171 70 l-35 0 40 -21 c53 -27 94 -62 128 -106 39 -51 34
-58 -18 -22 -64 44 -118 66 -231 96 -194 50 -237 55 -338 40 -54 -9 -115 -26
-151 -42 -65 -31 -112 -34 -345 -20 -67 4 -98 3 -85 -3 11 -5 41 -10 66 -10
25 -1 70 -9 100 -18 38 -12 90 -17 178 -18 136 0 135 0 168 -77 12 -27 11 -30
-18 -46 -17 -9 -38 -23 -47 -30 -14 -10 -12 -10 10 -1 35 15 61 5 53 -20 -5
-18 1 -20 65 -27 41 -4 78 -13 86 -21 8 -8 21 -12 29 -9 25 9 17 26 -12 26
-39 0 -99 32 -95 51 1 10 -5 15 -19 15 -17 -1 -24 8 -35 49 -19 72 -17 83 15
116 35 35 59 39 37 7 -22 -31 -20 -84 5 -124 20 -33 56 -61 66 -51 2 3 -4 8
-14 11 -53 17 -72 135 -29 175 24 22 28 23 93 12 37 -7 76 -14 86 -17 20 -6
47 -54 47 -84 0 -33 -31 -78 -62 -91 -16 -6 -27 -14 -24 -16 8 -8 65 27 76 47
9 17 58 50 75 50 3 0 5 -6 5 -14 0 -24 -40 -64 -97 -97 -31 -18 -51 -35 -45
-37 16 -5 118 52 154 85 32 30 59 25 50 -9 -7 -29 -114 -132 -159 -153 -19 -9
-69 -19 -110 -22 -58 -5 -81 -11 -96 -26 -18 -18 -26 -19 -71 -10 -80 17 -86
2 -7 -18 46 -12 85 -29 109 -49 23 -19 58 -35 94 -42 32 -7 58 -15 58 -18 0
-4 -10 -12 -22 -19 -19 -9 -5 -10 72 -7 52 3 106 8 120 12 17 5 22 3 15 -4
-16 -17 -140 -51 -211 -58 -81 -9 -66 -23 26 -25 117 -2 15 -16 -175 -24 -176
-7 -280 -21 -185 -25 25 -1 56 -5 70 -9 24 -7 24 -7 -10 -21 -44 -18 -107 -74
-127 -113 l-15 -29 39 30 c31 25 108 62 130 62 3 0 -11 -18 -30 -39 -45 -50
-87 -181 -58 -181 5 0 17 24 25 54 16 53 55 104 97 126 23 13 25 -2 2 -21 -26
-22 -43 -74 -42 -126 l1 -48 9 40 c5 22 20 54 32 72 24 35 44 45 27 14 -12
-23 -13 -120 -2 -139 6 -9 13 1 22 30 l13 43 11 -50 c15 -66 43 -75 38 -13 -4
53 30 106 110 168 88 71 170 106 407 180 l154 47 80 -29 c123 -44 273 -80 367
-87 l85 -6 3 -51 c2 -34 -4 -71 -19 -110 -45 -125 -35 -134 52 -45 72 73 95
120 110 213 46 294 -98 522 -474 752 -16 10 -38 41 -56 80 -35 77 -87 137
-141 161 -43 19 -61 15 -40 -10 28 -34 -6 -11 -78 53 -42 37 -100 84 -128 104
-66 48 -178 102 -183 87 -2 -6 2 -16 8 -22 31 -31 3 -19 -70 29 -116 76 -229
129 -354 163 -125 36 -115 34 -115 21z m963 -548 c25 -30 39 -19 31 25 -10 54
13 33 48 -45 43 -96 41 -117 -19 -172 -28 -25 -73 -56 -100 -67 l-51 -21 -33
47 c-49 67 -48 72 5 21 l46 -44 0 39 c-1 54 -33 121 -83 173 -52 53 -38 54 31
2 49 -37 52 -38 52 -17 0 19 -27 104 -55 172 -7 19 88 -65 128 -113z m222
-190 c33 -20 82 -52 109 -71 l48 -33 -28 -24 -29 -23 25 -23 c14 -13 19 -16
12 -8 -25 29 -9 60 30 60 15 0 112 -103 150 -158 70 -102 108 -256 90 -362
-11 -57 -51 -159 -64 -160 -3 0 -4 39 -2 88 4 103 -5 132 -54 166 -59 40 -91
48 -197 50 -85 1 -107 5 -145 26 -25 13 -74 31 -110 41 -60 15 -63 17 -40 27
17 7 19 11 8 11 -9 1 -20 -3 -23 -9 -13 -21 -92 -6 -83 16 1 5 -22 11 -52 14
-49 4 -53 6 -35 17 25 16 5 17 -32 2 -15 -6 -82 -11 -148 -12 -66 0 -100 -1
-75 -3 192 -14 283 -29 415 -71 77 -24 169 -57 205 -73 36 -16 92 -32 124 -36
51 -6 66 -13 100 -45 l41 -38 -30 -1 c-16 0 -73 11 -125 25 -52 14 -138 35
-190 47 -65 15 -115 34 -160 61 -50 30 -81 41 -135 48 -38 5 -88 13 -109 18
-31 8 -59 5 -125 -11 -63 -15 -104 -19 -153 -15 -84 7 -158 38 -158 66 0 29
13 33 54 16 19 -8 48 -15 63 -14 23 1 20 3 -16 13 -56 15 -68 38 -17 29 20 -3
64 0 99 8 57 12 68 19 127 79 92 93 140 119 254 135 111 16 172 44 247 114 30
28 59 50 64 51 6 0 37 -17 70 -38z m-402 -494 c37 -12 67 -24 67 -28 0 -3 -45
-21 -100 -39 -123 -40 -294 -126 -417 -209 -51 -34 -93 -58 -93 -53 0 9 91 96
135 128 l30 22 -35 1 c-69 1 -63 17 9 24 82 8 158 29 216 59 39 20 39 21 15
27 -28 8 -26 9 57 36 29 9 50 20 48 25 -3 4 -32 11 -65 15 -33 4 -60 10 -60
13 0 14 126 0 193 -21z"/>
<path d="M2820 6293 c-76 -7 -65 -20 25 -26 126 -9 137 -23 24 -31 -152 -11
-378 -59 -393 -84 -3 -5 52 0 122 10 133 18 288 24 262 9 -8 -5 -62 -16 -120
-25 -134 -22 -273 -61 -328 -93 -24 -14 -41 -27 -39 -30 3 -2 38 5 79 16 80
22 289 61 322 60 12 0 -62 -28 -164 -62 -217 -73 -338 -130 -400 -186 l-45
-41 105 49 c161 75 307 120 490 152 110 20 450 17 568 -4 50 -9 95 -17 100
-16 25 2 -113 51 -211 75 -64 15 -117 32 -117 37 0 17 217 -14 336 -48 10 -3
-39 24 -111 59 -71 36 -136 65 -142 66 -7 0 -13 5 -13 11 0 13 108 5 207 -16
35 -7 60 -9 58 -5 -9 15 -177 80 -259 101 -81 21 -260 32 -356 22z m286 -34
c59 -12 95 -29 60 -29 -10 0 -36 -5 -58 -12 l-38 -11 32 -28 33 -27 -30 -7
c-72 -15 -116 -28 -120 -36 -3 -4 11 -13 30 -20 19 -7 35 -17 35 -21 0 -4 -45
-8 -100 -8 -55 0 -100 2 -100 5 0 2 19 14 42 26 l42 21 -25 13 c-23 13 -23 14
25 26 49 12 49 12 28 30 -31 25 -28 29 21 29 57 0 64 9 30 37 l-28 22 31 1
c17 0 57 -5 90 -11z"/>
<path d="M2230 5991 c-94 -29 -235 -124 -310 -208 -46 -52 -132 -175 -126
-180 2 -2 30 12 62 30 116 68 290 128 369 126 35 0 38 -2 21 -12 -55 -34 -139
-109 -184 -162 -46 -56 -120 -175 -109 -175 3 0 45 13 94 29 233 78 457 131
549 131 l59 -1 -57 -31 c-32 -17 -84 -54 -115 -83 -62 -56 -167 -183 -143
-172 97 42 194 77 233 82 26 4 47 5 47 3 0 -2 -22 -28 -49 -57 -42 -45 -111
-154 -111 -175 0 -3 23 11 50 32 57 43 147 78 230 89 l55 7 -40 8 c-45 10
-114 3 -162 -17 -23 -10 -33 -10 -33 -3 0 19 80 86 133 113 28 14 44 25 36 25
-7 1 -39 3 -69 6 -30 3 -84 1 -119 -5 -36 -6 -67 -8 -69 -6 -6 6 76 80 124
112 47 33 129 63 193 72 l56 7 -60 13 c-78 17 -340 9 -448 -14 -65 -13 -175
-44 -259 -72 -32 -10 -19 13 43 81 70 76 162 145 240 180 l54 24 -69 7 c-120
13 -275 -10 -368 -55 -23 -11 -44 -18 -46 -15 -11 11 135 139 234 204 106 70
112 76 64 62z"/>
<path d="M2415 5810 c3 -5 16 -10 28 -10 59 -1 41 -18 -52 -49 -55 -18 -107
-41 -117 -52 -21 -23 -17 -23 28 -5 50 21 208 65 208 57 0 -3 -21 -14 -46 -25
-25 -10 -43 -20 -41 -22 2 -3 33 2 68 11 35 8 78 14 94 14 l30 -1 -35 -15
c-19 -8 -84 -23 -145 -32 -95 -15 -105 -19 -76 -25 45 -11 139 0 304 35 76 16
152 29 169 29 25 0 28 2 19 14 -10 12 -5 16 26 26 55 18 67 33 18 23 -65 -13
-193 -6 -299 16 -105 23 -191 28 -181 11z"/>
<path d="M2668 5464 c-27 -8 -48 -16 -48 -17 0 -1 52 0 116 2 121 3 176 -10
90 -23 -63 -10 -68 -26 -9 -26 60 0 123 -10 123 -20 0 -4 -36 -10 -79 -13 -77
-6 -142 -25 -154 -45 -4 -6 10 -5 36 1 34 7 71 5 173 -14 71 -12 156 -24 189
-26 l60 -4 -68 24 c-93 33 -102 45 -24 34 35 -6 81 -6 103 -2 38 8 38 8 -38
21 -43 8 -92 20 -110 28 l-33 14 45 1 c107 3 96 14 -46 48 -154 36 -247 41
-326 17z"/>
<path d="M8114 5271 c-18 -46 -78 -102 -136 -128 l-38 -17 46 -22 c59 -29 99
-67 125 -122 l22 -44 17 39 c23 51 70 96 129 126 l49 24 -33 12 c-61 22 -115
70 -140 123 l-24 51 -17 -42z"/>
<path d="M2070 5260 c-1 -3 -11 -68 -24 -145 -21 -132 -21 -154 5 -155 3 0 11
46 17 102 11 95 17 117 26 107 2 -2 34 -50 70 -107 37 -57 71 -102 77 -100 16
5 15 9 -27 76 -84 135 -144 227 -144 222z"/>
<path d="M7861 5023 c-17 -46 -84 -113 -138 -137 l-43 -19 48 -22 c54 -26 101
-73 129 -128 l19 -39 19 42 c22 49 93 114 141 130 39 13 37 26 -5 35 -43 9
-111 73 -136 126 l-22 47 -12 -35z"/>
<path d="M580 4746 l0 -157 993 1 c873 2 1005 0 1100 -15 339 -51 596 -208
712 -435 63 -124 77 -188 83 -367 2 -90 0 -163 -4 -163 -5 0 -191 182 -414
405 l-405 405 -422 0 -423 0 0 -735 0 -735 290 0 290 0 0 615 c0 338 3 615 8
615 4 0 218 -211 476 -469 l469 -469 -31 -39 c-136 -172 -368 -294 -651 -343
-108 -19 -162 -20 -1092 -20 l-979 0 0 -161 0 -160 803 6 c441 4 930 10 1087
15 282 8 286 8 420 43 302 79 528 183 713 329 l49 38 231 0 232 1 115 111 c63
61 297 289 520 507 482 472 578 565 591 569 5 2 9 -229 9 -592 l0 -596 275 0
275 0 0 735 0 735 -397 0 -398 0 -180 -178 c-99 -97 -284 -278 -410 -401 -127
-124 -312 -305 -413 -404 -100 -99 -184 -178 -187 -175 -3 2 7 29 21 59 37 77
81 257 89 369 12 172 -24 361 -100 517 -171 351 -583 590 -1155 669 -84 11
-318 16 -1147 21 l-1043 6 0 -157z m1976 109 c16 -4 23 -2 19 5 -4 6 12 10 44
10 28 0 51 -3 51 -7 0 -5 33 -9 73 -10 87 -1 215 -25 357 -64 404 -112 690
-322 821 -604 100 -212 117 -502 44 -744 -107 -360 -439 -646 -925 -796 -233
-72 -272 -79 -485 -80 -110 -1 -189 1 -176 3 19 3 21 6 10 14 -10 7 -8 8 8 3
34 -10 173 6 145 16 -20 8 -22 15 -22 83 l0 74 -52 11 -53 10 48 -4 c26 -3 47
0 47 5 0 5 8 7 18 3 12 -4 14 -3 7 5 -5 6 -21 13 -35 15 -14 3 -6 5 18 4 23
-2 42 1 42 5 0 3 26 11 58 17 336 63 576 195 721 399 123 172 174 410 141 659
-35 259 -185 469 -418 587 -131 66 -235 96 -478 137 -56 9 -71 15 -69 28 1 11
-8 18 -34 22 l-36 6 40 2 40 1 -3 91 -3 91 -37 -5 c-20 -3 -29 -3 -19 -1 9 3
17 10 17 15 0 5 11 7 25 4 14 -3 37 -7 51 -10z m3324 -1170 l0 -725 -260 0
-260 0 -2 610 -3 611 -97 -93 c-53 -51 -209 -203 -348 -338 -138 -135 -297
-289 -353 -343 -56 -54 -130 -125 -164 -159 -35 -34 -63 -57 -63 -52 0 5 -5 2
-10 -6 -9 -13 -11 -13 -19 0 -6 8 -13 11 -18 7 -4 -5 -1 -12 6 -16 7 -5 10
-14 7 -20 -4 -6 -12 -8 -18 -5 -6 4 -8 3 -5 -3 4 -6 -5 -21 -18 -33 -21 -20
-25 -21 -25 -7 0 9 -5 17 -11 17 -7 0 -9 -9 -5 -24 4 -17 -2 -31 -21 -52 -15
-16 -30 -29 -34 -29 -4 0 -17 -12 -29 -27 -22 -29 -40 -36 -40 -17 0 5 5 7 10
4 6 -3 10 3 10 14 0 11 -5 23 -11 27 -6 3 -9 17 -6 30 4 25 -8 33 -16 12 -3
-8 -6 -6 -6 5 -1 9 6 17 14 17 8 0 15 8 15 18 0 9 3 41 6 70 6 44 4 52 -10 52
-19 0 -21 18 -3 39 19 23 38 71 28 71 -5 0 -11 15 -13 34 -2 19 -1 34 2 34 21
-2 29 4 23 19 -5 12 -2 15 10 10 11 -4 17 -1 17 8 0 14 12 20 33 16 5 -1 7 7
5 17 -2 11 0 20 5 20 19 4 28 1 22 -8 -3 -5 -1 -10 5 -10 6 0 8 12 5 30 -5 28
2 35 28 31 4 -1 7 4 5 11 -4 21 49 71 68 64 12 -5 15 -2 10 9 -4 11 86 106
301 318 169 166 345 339 390 385 l84 82 379 0 380 0 0 -725z"/>
<path d="M4778 4894 c-3 -5 -5 -74 -4 -154 l1 -145 996 -2 c951 -1 1001 -2
1115 -22 337 -57 579 -209 692 -436 71 -143 99 -305 82 -480 -15 -159 -43
-254 -111 -367 -122 -207 -337 -345 -654 -421 -88 -21 -107 -21 -1107 -24
l-1018 -4 0 -160 0 -161 748 7 c1329 11 1360 12 1447 29 195 39 375 100 551
186 368 181 579 415 670 745 25 90 27 116 27 265 1 184 -17 279 -75 415 -161
375 -582 629 -1178 710 -83 12 -325 16 -1141 22 -623 4 -1038 3 -1041 -3z
m2147 -35 c453 -49 837 -220 1050 -467 156 -181 225 -374 225 -630 0 -391
-154 -663 -515 -911 -163 -112 -518 -243 -760 -280 -76 -12 -205 -13 -205 -2
0 4 -19 13 -42 18 -41 10 -42 11 -10 12 l32 1 0 80 0 80 -31 0 c-16 0 -28 4
-25 8 3 5 20 7 38 6 30 -3 31 -3 8 5 l-25 9 26 1 c49 2 89 13 82 24 -4 6 3 8
19 4 17 -5 28 -2 31 6 3 7 36 19 73 26 186 34 411 143 535 258 59 56 144 181
183 270 38 88 56 179 63 314 17 353 -117 611 -402 771 -68 38 -206 91 -280
108 -27 7 -57 14 -65 17 -8 3 -22 7 -30 8 -122 16 -122 16 -103 32 15 13 14
13 -8 0 -26 -16 -69 -13 -69 4 0 5 -12 10 -27 10 -20 1 -22 3 -8 6 19 3 20 10
17 98 l-3 94 -32 4 c-24 4 -21 5 13 5 73 0 79 5 15 12 -54 6 -49 7 40 8 55 0
141 -4 190 -9z"/>
<path d="M1300 3685 l0 -735 180 0 180 0 0 735 0 735 -180 0 -180 0 0 -735z
m350 -1 l0 -726 -62 6 c-35 3 -67 7 -73 8 -7 1 -10 246 -10 712 0 462 3 714
10 718 6 4 38 8 73 8 l62 0 0 -726z"/>
<path d="M6050 3685 l0 -735 185 0 185 0 0 735 0 735 -185 0 -185 0 0 -735z
m352 8 c2 -395 0 -722 -4 -727 -3 -4 -38 -5 -77 -1 -70 7 -71 7 -66 34 3 14 5
335 5 713 l1 687 22 4 c12 2 43 5 69 6 l48 1 2 -717z"/>
<path d="M8890 3096 c-58 -24 -197 -79 -310 -124 -113 -44 -349 -138 -525
-207 -176 -70 -403 -160 -505 -200 -102 -40 -295 -117 -430 -170 -135 -53
-342 -135 -460 -182 -118 -47 -343 -136 -500 -198 -157 -62 -337 -133 -400
-158 -63 -25 -234 -92 -380 -150 -146 -58 -362 -143 -480 -190 -118 -47 -312
-123 -430 -170 -293 -116 -562 -222 -765 -301 -93 -37 -190 -76 -215 -86 -25
-11 -155 -63 -290 -116 -135 -53 -339 -133 -455 -179 -115 -46 -318 -126 -450
-178 -132 -52 -388 -153 -570 -225 -181 -72 -404 -160 -495 -196 l-165 -65
2415 2 2415 2 90 34 c50 19 92 37 95 40 5 6 24 14 170 67 52 19 120 46 150 60
83 39 89 41 180 73 78 27 128 48 172 72 10 5 26 9 36 9 10 0 27 7 38 15 10 8
27 15 36 15 9 0 18 3 20 8 2 4 35 18 73 31 39 13 93 34 120 47 28 12 64 26 80
30 17 4 39 13 50 20 11 7 47 22 80 32 33 11 98 36 145 56 46 20 89 36 96 36 6
0 23 9 37 20 14 11 32 20 41 20 27 0 273 97 358 141 20 10 44 19 53 19 9 0 35
8 58 19 23 10 74 31 112 45 103 40 165 65 211 87 22 10 48 19 58 19 9 0 34 9
54 20 33 17 196 84 277 113 17 6 58 24 92 39 33 15 75 31 92 34 l31 7 0 953
c0 525 -1 954 -2 953 -2 0 -50 -19 -108 -43z"/>
</g>
</svg>
